<mxfile host="app.diagrams.net" modified="2022-08-25T15:44:54.452Z" agent="5.0 (Windows NT 10.0; Win64; x64) AppleWebKit/537.36 (KHTML, like Gecko) Chrome/104.0.0.0 Safari/537.36" etag="Emi-oOHfyE6rqBxcO08p" version="20.2.7" type="github">
  <diagram id="6oi2c197Mp2lnD2wPT44" name="Page-1">
    <mxGraphModel dx="892" dy="394" grid="1" gridSize="10" guides="1" tooltips="1" connect="1" arrows="1" fold="1" page="1" pageScale="1" pageWidth="850" pageHeight="1100" math="0" shadow="0">
      <root>
        <mxCell id="0" />
        <mxCell id="1" parent="0" />
        <mxCell id="fvqsZ64hHBsry9F06uR0-1" value="" style="outlineConnect=0;dashed=0;verticalLabelPosition=bottom;verticalAlign=top;align=center;html=1;shape=mxgraph.aws3.ec2;fillColor=#F58534;gradientColor=none;" parent="1" vertex="1">
          <mxGeometry x="20" y="220" width="70" height="73" as="geometry" />
        </mxCell>
        <mxCell id="fvqsZ64hHBsry9F06uR0-2" value="Amazon Kinesis" style="sketch=0;outlineConnect=0;fontColor=#232F3E;gradientColor=none;strokeColor=#ffffff;fillColor=#232F3E;dashed=0;verticalLabelPosition=middle;verticalAlign=bottom;align=center;html=1;whiteSpace=wrap;fontSize=10;fontStyle=1;spacing=3;shape=mxgraph.aws4.productIcon;prIcon=mxgraph.aws4.kinesis;" parent="1" vertex="1">
          <mxGeometry x="30" y="360" width="50" height="80" as="geometry" />
        </mxCell>
        <mxCell id="fvqsZ64hHBsry9F06uR0-3" value="" style="sketch=0;points=[[0,0,0],[0.25,0,0],[0.5,0,0],[0.75,0,0],[1,0,0],[0,1,0],[0.25,1,0],[0.5,1,0],[0.75,1,0],[1,1,0],[0,0.25,0],[0,0.5,0],[0,0.75,0],[1,0.25,0],[1,0.5,0],[1,0.75,0]];outlineConnect=0;fontColor=#232F3E;gradientColor=#945DF2;gradientDirection=north;fillColor=#5A30B5;strokeColor=#ffffff;dashed=0;verticalLabelPosition=bottom;verticalAlign=top;align=center;html=1;fontSize=12;fontStyle=0;aspect=fixed;shape=mxgraph.aws4.resourceIcon;resIcon=mxgraph.aws4.kinesis_data_firehose;" parent="1" vertex="1">
          <mxGeometry x="209" y="223.75" width="68" height="68" as="geometry" />
        </mxCell>
        <mxCell id="fvqsZ64hHBsry9F06uR0-21" value="" style="edgeStyle=orthogonalEdgeStyle;rounded=0;orthogonalLoop=1;jettySize=auto;html=1;" parent="1" source="fvqsZ64hHBsry9F06uR0-4" target="fvqsZ64hHBsry9F06uR0-3" edge="1">
          <mxGeometry relative="1" as="geometry" />
        </mxCell>
        <mxCell id="fvqsZ64hHBsry9F06uR0-4" value="" style="outlineConnect=0;dashed=0;verticalLabelPosition=bottom;verticalAlign=top;align=center;html=1;shape=mxgraph.aws3.s3;fillColor=#E05243;gradientColor=none;" parent="1" vertex="1">
          <mxGeometry x="380" y="226.25" width="60" height="63" as="geometry" />
        </mxCell>
        <mxCell id="fvqsZ64hHBsry9F06uR0-5" value="" style="outlineConnect=0;dashed=0;verticalLabelPosition=bottom;verticalAlign=top;align=center;html=1;shape=mxgraph.aws3.lambda_function;fillColor=#F58534;gradientColor=none;" parent="1" vertex="1">
          <mxGeometry x="209" y="70" width="69" height="72" as="geometry" />
        </mxCell>
        <mxCell id="fvqsZ64hHBsry9F06uR0-6" value="" style="sketch=0;outlineConnect=0;fontColor=#232F3E;gradientColor=none;fillColor=#4D27AA;strokeColor=none;dashed=0;verticalLabelPosition=bottom;verticalAlign=top;align=center;html=1;fontSize=12;fontStyle=0;aspect=fixed;pointerEvents=1;shape=mxgraph.aws4.glue_data_catalog;" parent="1" vertex="1">
          <mxGeometry x="660" y="221.25" width="60.46" height="65.5" as="geometry" />
        </mxCell>
        <mxCell id="fvqsZ64hHBsry9F06uR0-7" value="" style="sketch=0;points=[[0,0,0],[0.25,0,0],[0.5,0,0],[0.75,0,0],[1,0,0],[0,1,0],[0.25,1,0],[0.5,1,0],[0.75,1,0],[1,1,0],[0,0.25,0],[0,0.5,0],[0,0.75,0],[1,0.25,0],[1,0.5,0],[1,0.75,0]];outlineConnect=0;fontColor=#232F3E;gradientColor=#945DF2;gradientDirection=north;fillColor=#5A30B5;strokeColor=#ffffff;dashed=0;verticalLabelPosition=bottom;verticalAlign=top;align=center;html=1;fontSize=12;fontStyle=0;aspect=fixed;shape=mxgraph.aws4.resourceIcon;resIcon=mxgraph.aws4.glue;" parent="1" vertex="1">
          <mxGeometry x="530" y="228.75" width="58" height="58" as="geometry" />
        </mxCell>
        <mxCell id="fvqsZ64hHBsry9F06uR0-8" value="" style="outlineConnect=0;dashed=0;verticalLabelPosition=bottom;verticalAlign=top;align=center;html=1;shape=mxgraph.aws3.athena;fillColor=#F58534;gradientColor=none;" parent="1" vertex="1">
          <mxGeometry x="760" y="110" width="76.5" height="76.5" as="geometry" />
        </mxCell>
        <mxCell id="fvqsZ64hHBsry9F06uR0-11" value="" style="endArrow=classic;html=1;rounded=0;entryX=0;entryY=0.5;entryDx=0;entryDy=0;entryPerimeter=0;" parent="1" target="fvqsZ64hHBsry9F06uR0-3" edge="1">
          <mxGeometry relative="1" as="geometry">
            <mxPoint x="90" y="258.58000000000004" as="sourcePoint" />
            <mxPoint x="180" y="260" as="targetPoint" />
          </mxGeometry>
        </mxCell>
        <mxCell id="fvqsZ64hHBsry9F06uR0-12" value="Raw Log Stream" style="edgeLabel;resizable=0;html=1;align=center;verticalAlign=middle;" parent="fvqsZ64hHBsry9F06uR0-11" connectable="0" vertex="1">
          <mxGeometry relative="1" as="geometry">
            <mxPoint x="-2" as="offset" />
          </mxGeometry>
        </mxCell>
        <mxCell id="fvqsZ64hHBsry9F06uR0-18" value="" style="endArrow=classic;html=1;rounded=0;" parent="1" edge="1">
          <mxGeometry relative="1" as="geometry">
            <mxPoint x="278" y="257.33000000000004" as="sourcePoint" />
            <mxPoint x="378" y="257.33000000000004" as="targetPoint" />
            <Array as="points">
              <mxPoint x="328" y="257.33000000000004" />
            </Array>
          </mxGeometry>
        </mxCell>
        <mxCell id="fvqsZ64hHBsry9F06uR0-19" value="Write" style="edgeLabel;resizable=0;html=1;align=center;verticalAlign=middle;" parent="fvqsZ64hHBsry9F06uR0-18" connectable="0" vertex="1">
          <mxGeometry relative="1" as="geometry" />
        </mxCell>
        <mxCell id="fvqsZ64hHBsry9F06uR0-22" value="" style="endArrow=classic;html=1;rounded=0;" parent="1" edge="1">
          <mxGeometry relative="1" as="geometry">
            <mxPoint x="440" y="257.3299999999999" as="sourcePoint" />
            <mxPoint x="530" y="257" as="targetPoint" />
            <Array as="points">
              <mxPoint x="490" y="257.33000000000004" />
            </Array>
          </mxGeometry>
        </mxCell>
        <mxCell id="fvqsZ64hHBsry9F06uR0-23" value="Crawl&amp;nbsp;" style="edgeLabel;resizable=0;html=1;align=center;verticalAlign=middle;" parent="fvqsZ64hHBsry9F06uR0-22" connectable="0" vertex="1">
          <mxGeometry relative="1" as="geometry">
            <mxPoint x="2" y="-1" as="offset" />
          </mxGeometry>
        </mxCell>
        <mxCell id="fvqsZ64hHBsry9F06uR0-26" value="" style="endArrow=classic;html=1;rounded=0;exitX=1;exitY=0.5;exitDx=0;exitDy=0;exitPerimeter=0;" parent="1" source="fvqsZ64hHBsry9F06uR0-7" edge="1">
          <mxGeometry relative="1" as="geometry">
            <mxPoint x="600" y="257" as="sourcePoint" />
            <mxPoint x="660" y="257.33000000000004" as="targetPoint" />
          </mxGeometry>
        </mxCell>
        <mxCell id="fvqsZ64hHBsry9F06uR0-27" value="Load" style="edgeLabel;resizable=0;html=1;align=center;verticalAlign=middle;" parent="fvqsZ64hHBsry9F06uR0-26" connectable="0" vertex="1">
          <mxGeometry relative="1" as="geometry" />
        </mxCell>
        <mxCell id="fvqsZ64hHBsry9F06uR0-28" value="" style="endArrow=classic;html=1;rounded=0;entryX=0.5;entryY=1;entryDx=0;entryDy=0;entryPerimeter=0;" parent="1" target="fvqsZ64hHBsry9F06uR0-8" edge="1">
          <mxGeometry relative="1" as="geometry">
            <mxPoint x="720.46" y="253.57999999999993" as="sourcePoint" />
            <mxPoint x="820.46" y="253.57999999999998" as="targetPoint" />
            <Array as="points">
              <mxPoint x="770.46" y="253.58000000000004" />
              <mxPoint x="820" y="230" />
            </Array>
          </mxGeometry>
        </mxCell>
        <mxCell id="fvqsZ64hHBsry9F06uR0-29" value="Quey" style="edgeLabel;resizable=0;html=1;align=center;verticalAlign=middle;" parent="fvqsZ64hHBsry9F06uR0-28" connectable="0" vertex="1">
          <mxGeometry relative="1" as="geometry" />
        </mxCell>
        <mxCell id="fvqsZ64hHBsry9F06uR0-30" value="" style="endArrow=classic;html=1;rounded=0;" parent="1" target="fvqsZ64hHBsry9F06uR0-1" edge="1">
          <mxGeometry relative="1" as="geometry">
            <mxPoint x="55" y="360" as="sourcePoint" />
            <mxPoint x="480" y="390" as="targetPoint" />
          </mxGeometry>
        </mxCell>
        <mxCell id="fvqsZ64hHBsry9F06uR0-31" value="Kinesis agent" style="edgeLabel;resizable=0;html=1;align=center;verticalAlign=middle;" parent="fvqsZ64hHBsry9F06uR0-30" connectable="0" vertex="1">
          <mxGeometry relative="1" as="geometry" />
        </mxCell>
        <mxCell id="fvqsZ64hHBsry9F06uR0-32" value="" style="endArrow=classic;html=1;rounded=0;exitX=0.5;exitY=0;exitDx=0;exitDy=0;exitPerimeter=0;" parent="1" source="fvqsZ64hHBsry9F06uR0-3" edge="1">
          <mxGeometry relative="1" as="geometry">
            <mxPoint x="242.09" y="188.9999999999999" as="sourcePoint" />
            <mxPoint x="244.90437125748517" y="141.9999999999999" as="targetPoint" />
          </mxGeometry>
        </mxCell>
        <mxCell id="fvqsZ64hHBsry9F06uR0-33" value="Transform" style="edgeLabel;resizable=0;html=1;align=center;verticalAlign=middle;" parent="fvqsZ64hHBsry9F06uR0-32" connectable="0" vertex="1">
          <mxGeometry relative="1" as="geometry" />
        </mxCell>
        <mxCell id="fvqsZ64hHBsry9F06uR0-37" value="EC2-instance" style="text;html=1;align=center;verticalAlign=middle;resizable=0;points=[];autosize=1;strokeColor=none;fillColor=none;" parent="1" vertex="1">
          <mxGeometry x="5" y="196.25" width="100" height="30" as="geometry" />
        </mxCell>
        <mxCell id="fvqsZ64hHBsry9F06uR0-38" value="Kinesis Data Firehose" style="text;html=1;align=center;verticalAlign=middle;resizable=0;points=[];autosize=1;strokeColor=none;fillColor=none;" parent="1" vertex="1">
          <mxGeometry x="173" y="286.75" width="140" height="30" as="geometry" />
        </mxCell>
        <mxCell id="fvqsZ64hHBsry9F06uR0-39" value="S3 Bucket" style="text;html=1;align=center;verticalAlign=middle;resizable=0;points=[];autosize=1;strokeColor=none;fillColor=none;" parent="1" vertex="1">
          <mxGeometry x="370" y="198.75" width="80" height="30" as="geometry" />
        </mxCell>
        <mxCell id="fvqsZ64hHBsry9F06uR0-40" value="Glue Crawler" style="text;html=1;align=center;verticalAlign=middle;resizable=0;points=[];autosize=1;strokeColor=none;fillColor=none;" parent="1" vertex="1">
          <mxGeometry x="514" y="280" width="90" height="30" as="geometry" />
        </mxCell>
        <mxCell id="fvqsZ64hHBsry9F06uR0-41" value="Glue Data Catalog" style="text;html=1;align=center;verticalAlign=middle;resizable=0;points=[];autosize=1;strokeColor=none;fillColor=none;" parent="1" vertex="1">
          <mxGeometry x="630.23" y="196.25" width="120" height="30" as="geometry" />
        </mxCell>
        <mxCell id="fvqsZ64hHBsry9F06uR0-42" value="Athena&amp;nbsp;" style="text;html=1;align=center;verticalAlign=middle;resizable=0;points=[];autosize=1;strokeColor=none;fillColor=none;" parent="1" vertex="1">
          <mxGeometry x="768.25" y="80" width="60" height="30" as="geometry" />
        </mxCell>
        <mxCell id="fvqsZ64hHBsry9F06uR0-43" value="Lambda" style="text;html=1;align=center;verticalAlign=middle;resizable=0;points=[];autosize=1;strokeColor=none;fillColor=none;" parent="1" vertex="1">
          <mxGeometry x="207" y="50" width="70" height="30" as="geometry" />
        </mxCell>
      </root>
    </mxGraphModel>
  </diagram>
</mxfile>
